<?xml version="1.0" encoding="UTF-8"?>
<svg version="1.1" xmlns="http://www.w3.org/2000/svg" width="500" height="500">
<path d="M0 0 C0.9492334 0.21285645 1.8984668 0.42571289 2.87646484 0.64501953 C22.95387864 5.26689195 41.8602639 12.24561361 60 22 C60.64743164 22.34111816 61.29486328 22.68223633 61.96191406 23.03369141 C91.56144878 38.67874336 118.51541607 61.73499701 138 89 C138.75925781 90.03769531 139.51851563 91.07539062 140.30078125 92.14453125 C165.98370198 128.11836323 181.79823599 171.654908 183 216 C183.03287109 217.17852539 183.03287109 217.17852539 183.06640625 218.38085938 C184.51571301 280.45949889 162.73327446 339.74252463 120.04589844 385.07519531 C110.96683927 394.57950315 101.60527468 403.24079094 91 411 C89.87216154 411.84604192 88.74455819 412.69239736 87.6171875 413.5390625 C55.73060087 437.18949704 18.29953226 451.15040302 -21 456 C-21.7226001 456.0942627 -22.4452002 456.18852539 -23.18969727 456.28564453 C-31.16590847 457.21696611 -39.16741072 457.24348849 -47.1875 457.25 C-48.31341049 457.25101212 -48.31341049 457.25101212 -49.46206665 457.25204468 C-62.50563814 457.23351762 -75.15143514 456.37592982 -88 454 C-88.94343262 453.82839355 -89.88686523 453.65678711 -90.85888672 453.47998047 C-129.99114511 446.15373032 -166.82576957 429.10685768 -197 403 C-197.78117187 402.3296875 -198.56234375 401.659375 -199.3671875 400.96875 C-211.23810977 390.53790682 -222.33812641 379.44163478 -231.73242188 366.71630859 C-232.98942094 365.01432411 -234.2672632 363.32955002 -235.546875 361.64453125 C-242.30564907 352.6101769 -247.81590367 343.00824183 -253 333 C-253.42313477 332.18644043 -253.84626953 331.37288086 -254.28222656 330.53466797 C-281.87218721 276.82941857 -286.6352194 213.39139621 -268.55834961 155.84033203 C-258.36699572 124.79484523 -242.33848609 96.42159185 -220.18359375 72.37109375 C-218.67708266 70.73522214 -217.19119007 69.08020415 -215.72265625 67.41015625 C-211.10615598 62.1623397 -206.35813731 57.47583683 -201 53 C-200.03191406 52.15566406 -199.06382812 51.31132813 -198.06640625 50.44140625 C-181.77812547 36.28060486 -163.53644872 25.09424384 -144 16 C-143.28392578 15.66613281 -142.56785156 15.33226563 -141.83007812 14.98828125 C-98.03503375 -5.11815073 -47.02879505 -10.61566281 0 0 Z " fill="#0096B1" transform="translate(298,23)"/>
<path d="M0 0 C81.84 0 163.68 0 248 0 C244.76760563 11.85211268 244.76760563 11.85211268 242.00390625 17.7578125 C240.22277488 21.73590357 238.89057696 25.87271678 237.5 30 C236.9309964 31.68882346 236.35809466 33.37633868 235.78125 35.0625 C235.53439453 35.79597656 235.28753906 36.52945313 235.03320312 37.28515625 C233.52149209 41.25732702 231.726132 45.116203 230 49 C197 49 164 49 130 49 C130 49.66 130 50.32 130 51 C130.73210693 51.26498291 131.46421387 51.52996582 132.21850586 51.80297852 C134.99158633 52.99637916 137.09273888 54.3482091 139.50390625 56.15234375 C140.32697266 56.76400391 141.15003906 57.37566406 141.99804688 58.00585938 C142.84431641 58.64330078 143.69058594 59.28074219 144.5625 59.9375 C145.41263672 60.57107422 146.26277344 61.20464844 147.13867188 61.85742188 C149.42980467 63.56633739 151.71588801 65.28171827 154 67 C154.73758545 67.40331543 155.4751709 67.80663086 156.23510742 68.22216797 C158.96852195 70.97562275 158.60318061 74.05899878 158.609375 77.73046875 C158.62591125 78.48088943 158.64244751 79.23131012 158.65948486 80.00447083 C158.70803052 82.39889656 158.72934885 84.79268702 158.75 87.1875 C158.77815443 88.81188103 158.80808112 90.43623239 158.83984375 92.06054688 C158.91379039 96.04031227 158.96332417 100.01972367 159 104 C159.63921387 103.60458008 160.27842773 103.20916016 160.93701172 102.80175781 C165.90228058 99.76943358 170.76572731 97.01308035 176.125 94.75 C177.24132812 94.27046875 178.35765625 93.7909375 179.5078125 93.296875 C188.00778363 90.14028617 195.40938669 89.6628465 204.4375 89.6875 C205.61376953 89.67138672 206.79003906 89.65527344 208.00195312 89.63867188 C214.96526303 89.63477958 220.56429745 90.36980069 227 93 C227.92167969 93.28101563 228.84335937 93.56203125 229.79296875 93.8515625 C251.47918636 100.85624617 269.25159125 119.45331574 280 139 C289.76461863 158.55470574 292.64214583 182.72846169 287 204 C286.75507813 204.928125 286.51015625 205.85625 286.2578125 206.8125 C283.58613542 215.70232815 279.28483963 223.80472419 275 232 C274.34 232 273.68 232 273 232 C272.63068359 233.07701172 272.63068359 233.07701172 272.25390625 234.17578125 C267.72649537 244.3730338 257.18739315 254.46485201 249 262 C248.34 262 247.68 262 247 262 C247 262.66 247 263.32 247 264 C244.95356183 265.77095611 242.90036627 267.42585406 240.75 269.0625 C240.1204541 269.5476709 239.4909082 270.0328418 238.84228516 270.53271484 C237.53872817 271.53502279 236.23286822 272.53434222 234.92480469 273.53076172 C233.12132778 274.90738831 231.32903923 276.29729974 229.5390625 277.69140625 C227.97285156 278.89603516 227.97285156 278.89603516 226.375 280.125 C225.43398438 280.84945313 224.49296875 281.57390625 223.5234375 282.3203125 C219.46092383 285.02446246 219.46092383 285.02446246 217 285 C214.66796875 283.19140625 214.66796875 283.19140625 212.1875 280.5625 C211.37667969 279.71816406 210.56585938 278.87382812 209.73046875 278.00390625 C207.71105521 275.81577276 205.77029019 273.56865521 203.83203125 271.30859375 C199.31161658 266.11726147 194.39952574 261.33022552 189.5 256.5 C171.92830005 239.17683895 171.92830005 239.17683895 171 234 C171.83144531 233.38511719 172.66289062 232.77023437 173.51953125 232.13671875 C174.61728343 231.32044149 175.71493437 230.50402807 176.8125 229.6875 C177.35970703 229.28337891 177.90691406 228.87925781 178.47070312 228.46289062 C181.17361817 226.44799032 183.62491159 224.38170426 186 222 C187.53066273 220.92170785 189.07417509 219.86158744 190.625 218.8125 C206.21807916 207.57387114 222.78350098 192.64949707 229 174 C229.19741449 171.5464199 229.31215287 169.08570681 229.375 166.625 C229.42398437 165.31789063 229.47296875 164.01078125 229.5234375 162.6640625 C228.8773098 158.14116857 227.5461428 156.77659862 224 154 C215.87511832 151.29170611 207.82085917 153.20196138 200 156 C198.80375 156.391875 197.6075 156.78375 196.375 157.1875 C195.199375 157.5896875 195.199375 157.5896875 194 158 C194 158.66 194 159.32 194 160 C193.05125 160.474375 192.1025 160.94875 191.125 161.4375 C186.6633607 163.97149392 183.09784518 167.36128861 179.3515625 170.8359375 C177.54642601 172.49714284 175.73792601 174.04892982 173.8125 175.5625 C170.15170345 178.73519034 167.10435328 182.29220872 164 186 C162.72694756 187.25528 162.72694756 187.25528 161.42817688 188.53591919 C158.08464214 192.58180934 158.29119775 196.51659415 158.34057617 201.58544922 C158.33009247 202.53242172 158.31960876 203.47939423 158.30880737 204.45506287 C158.28010331 207.5719396 158.28634364 210.6877025 158.29296875 213.8046875 C158.27985095 215.97089019 158.26454648 218.13708065 158.24714661 220.30325317 C158.20729372 225.99473523 158.19710591 231.68589731 158.19311523 237.37750244 C158.18378444 243.18926705 158.14637115 249.00084361 158.11132812 254.8125 C158.04674914 266.20832455 158.01351152 277.60400848 158 289 C154.97417003 290.57429176 151.92752834 292.10321168 148.875 293.625 C148.0190625 294.07101562 147.163125 294.51703125 146.28125 294.9765625 C139.82530012 298.15487629 139.82530012 298.15487629 135.54324341 297.3513031 C134.70397308 296.90537308 133.86470276 296.45944305 133 296 C132.1529248 295.58886963 131.30584961 295.17773926 130.43310547 294.75415039 C129.58635254 294.29000732 128.73959961 293.82586426 127.8671875 293.34765625 C126.90490234 292.82324951 125.94261719 292.29884277 124.95117188 291.75854492 C123.4284668 290.91900269 123.4284668 290.91900269 121.875 290.0625 C120.82634766 289.48927002 119.77769531 288.91604004 118.69726562 288.32543945 C115.46206576 286.55530482 112.23074997 284.778241 109 283 C106.99230476 281.8982238 104.98449714 280.79665235 102.9765625 279.6953125 C98.3138851 277.13705272 93.65720158 274.56830969 89 272 C89 261.44 89 250.88 89 240 C85.535 240.99 85.535 240.99 82 242 C79.6436486 242.19771952 77.27850893 242.30630625 74.9140625 242.3359375 C73.93160049 242.3483699 73.93160049 242.3483699 72.92929077 242.36105347 C70.82762695 242.38024405 68.72673718 242.38039583 66.625 242.375 C65.55185547 242.37518127 65.55185547 242.37518127 64.45703125 242.37536621 C51.30065308 242.34362674 38.44149435 241.6466952 26.73828125 234.92578125 C24.76477137 233.87472093 22.82821298 233.26608918 20.6875 232.625 C4.32884953 227.31122068 -12.19474772 214.27502424 -23 201 C-23.66 200.67 -24.32 200.34 -25 200 C-26.01866229 198.34467377 -27.01810813 196.67739862 -28 195 C-28.66 194.34 -29.32 193.68 -30 193 C-30 192.01 -30 191.02 -30 190 C-30.99 189.67 -31.98 189.34 -33 189 C-40.30918076 177.29975247 -42.17956976 163.25426157 -42.1875 149.8125 C-42.19974609 148.73935547 -42.21199219 147.66621094 -42.22460938 146.56054688 C-42.25884085 127.69900557 -36.23929228 112.14817276 -23.3671875 98.19921875 C-8.16865799 84.07913276 10.18315695 77.82396134 30.6875 77.8125 C31.82123047 77.80025391 32.95496094 77.78800781 34.12304688 77.77539062 C47.23494135 77.75271876 56.02839361 80.57926937 67.5625 86.8125 C68.74092743 87.43669802 69.91996186 88.05975147 71.09960938 88.68164062 C77.44474794 92.04545775 83.72089104 95.51160614 90 99 C90 82.5 90 66 90 49 C53.04 49 16.08 49 -22 49 C-21.08920244 44.44601222 -20.05901574 42.04449519 -18 38 C-17.28006201 36.29652468 -16.57344691 34.58739914 -15.875 32.875 C-13.44610522 27.01010773 -10.93594278 21.18346263 -8.375 15.375 C-7.79854736 14.04057861 -7.79854736 14.04057861 -7.21044922 12.67919922 C-6.83936035 11.84404785 -6.46827148 11.00889648 -6.0859375 10.1484375 C-5.7564209 9.39739746 -5.4269043 8.64635742 -5.08740234 7.87255859 C-4 6 -4 6 -1 4 C-0.67 2.68 -0.34 1.36 0 0 Z " fill="#000101" transform="translate(126,112)"/>
<path d="M0 0 C0.19961275 4.24983217 0.34375857 8.49709981 0.43945312 12.75024414 C0.47938506 14.19278544 0.53375686 15.63500918 0.60351562 17.07641602 C1.23967395 30.57139231 1.23967395 30.57139231 -3.75 36.25 C-5.13284156 37.53732034 -6.54606732 38.79354892 -8 40 C-8.7940625 40.77472656 -9.588125 41.54945313 -10.40625 42.34765625 C-22.33012028 52.11366195 -39.88409171 61.29423355 -55.61328125 60.7890625 C-59.72905934 59.42836336 -61.09789266 56.29202723 -62.9765625 52.578125 C-66.7290565 43.12527751 -66.67715511 30.04881877 -63.1875 20.5625 C-58.24236125 10.47328015 -48.899738 0.83470405 -38.35546875 -3.19921875 C-25.41829719 -6.28666947 -12.41402757 -4.03336988 0 0 Z " fill="#0196B0" transform="translate(215,245)"/>
<path d="M0 0 C0.99 0.33 1.98 0.66 3 1 C4.39608117 1.09381986 5.79617816 1.13366032 7.19539928 1.1386652 C8.05480435 1.14413964 8.91420941 1.14961409 9.79965705 1.15525442 C10.74420085 1.15623253 11.68874466 1.15721064 12.66191101 1.15821838 C14.16646141 1.16562535 14.16646141 1.16562535 15.70140678 1.17318195 C19.07787298 1.18859636 22.45432012 1.19692825 25.83081055 1.20532227 C28.24501718 1.21489769 30.65922213 1.22490757 33.07342529 1.23532104 C38.27900672 1.25679358 43.4845896 1.27523082 48.69019127 1.29092598 C56.21664763 1.31362386 63.74307584 1.3417668 71.26950834 1.37124526 C83.48019692 1.41892217 95.69089699 1.46218609 107.90161133 1.50268555 C119.76425064 1.54203997 131.62687973 1.58346607 143.48950195 1.62768555 C144.2205277 1.63040982 144.95155345 1.63313409 145.70473149 1.63594092 C149.37201717 1.64962039 153.0393027 1.66334066 156.70658815 1.67708123 C187.13770427 1.79104756 217.56884201 1.89778323 248 2 C248 2.66 248 3.32 248 4 C166.16 4 84.32 4 0 4 C-0.33 5.65 -0.66 7.3 -1 9 C-1.99 9.33 -2.98 9.66 -4 10 C-4.33 10.66 -4.66 11.32 -5 12 C-4.2115777 7.40086993 -3.36569395 3.36569395 0 0 Z " fill="#076A7C" transform="translate(126,108)"/>
<path d="M0 0 C55.935 0.495 55.935 0.495 113 1 C113 17.5 113 34 113 51 C109.86615008 49.74646003 106.96854486 48.53924548 104 47 C106 46 106 46 111 47 C111 32.48 111 17.96 111 3 C74.37 3 37.74 3 0 3 C0 2.01 0 1.02 0 0 Z " fill="#0B6475" transform="translate(103,160)"/>
<path d="M0 0 C1.81242052 -0.02687279 3.62495233 -0.04633715 5.4375 -0.0625 C6.44683594 -0.07410156 7.45617187 -0.08570313 8.49609375 -0.09765625 C11 0 11 0 12 1 C27.81753312 3.84010752 44.00083194 3.2057262 60 3 C60.33 2.34 60.66 1.68 61 1 C62.93166016 1.01740234 62.93166016 1.01740234 64.90234375 1.03515625 C66.58072772 1.0445327 68.25911326 1.05363305 69.9375 1.0625 C70.78763672 1.07087891 71.63777344 1.07925781 72.51367188 1.08789062 C73.32255859 1.09111328 74.13144531 1.09433594 74.96484375 1.09765625 C75.7137085 1.10289307 76.46257324 1.10812988 77.23413086 1.11352539 C79.02667739 1.19341752 79.02667739 1.19341752 80 0 C82.67058851 -0.14115161 85.32432238 -0.04247107 88 0 C79.96821597 8.03178403 57.08450758 5.35883958 46 5.375 C32.49352233 5.36320084 19.32396728 4.30416797 6 2 C4.80890625 1.80277344 3.6178125 1.60554688 2.390625 1.40234375 C1.60171875 1.26957031 0.8128125 1.13679688 0 1 C0 0.67 0 0.34 0 0 Z " fill="#158094" transform="translate(204,475)"/>
<path d="M0 0 C0.66 0.99 1.32 1.98 2 3 C3.99791713 3.46120839 3.99791713 3.46120839 6.34060669 3.39872742 C7.25208466 3.41126556 8.16356262 3.42380371 9.10266113 3.4367218 C10.60669495 3.43456917 10.60669495 3.43456917 12.14111328 3.43237305 C13.19479095 3.4425647 14.24846863 3.45275635 15.33407593 3.46325684 C18.82954113 3.4935391 22.32473301 3.50267612 25.8203125 3.51171875 C28.23885012 3.52855412 30.65737892 3.54670279 33.07589722 3.56611633 C39.4512456 3.61374631 45.82655827 3.64347158 52.20202637 3.66955566 C58.70376644 3.69929571 65.20538329 3.74584844 71.70703125 3.79101562 C84.47128733 3.87719658 97.23557326 3.94504653 110 4 C110 4.33 110 4.66 110 5 C73.37 5 36.74 5 -1 5 C-0.67 3.35 -0.34 1.7 0 0 Z " fill="#000810" transform="translate(105,156)"/>
<path d="M0 0 C0.99 0.33 1.98 0.66 3 1 C2.57584242 1.39278924 2.15168484 1.78557848 1.714674 2.19027042 C-2.33987634 6.33528361 -3.69332878 9.2451998 -3.8099823 15.02668762 C-3.79776138 15.90854233 -3.78554047 16.79039703 -3.77294922 17.69897461 C-3.78357895 18.64609314 -3.79420868 19.59321167 -3.80516052 20.56903076 C-3.83312953 23.68068141 -3.81917353 26.7906258 -3.8046875 29.90234375 C-3.81594165 32.06711809 -3.82982404 34.23188022 -3.84622192 36.3966217 C-3.88223573 42.07995357 -3.88263637 47.76274722 -3.87554932 53.44616699 C-3.87463595 59.25131844 -3.90750154 65.05626868 -3.9375 70.86132812 C-3.9913397 82.2409418 -4.00754671 93.62027302 -4 105 C-4.33 105 -4.66 105 -5 105 C-5.11586937 92.1957248 -5.20470343 79.39157441 -5.25906086 66.58688164 C-5.28515029 60.641066 -5.32053741 54.69560915 -5.37719727 48.75 C-5.43153884 43.01172486 -5.46142546 37.27379474 -5.47438622 31.53528214 C-5.48362212 29.34639174 -5.50165781 27.15752015 -5.52865028 24.9687767 C-5.56496814 21.90178427 -5.56994407 18.83621596 -5.56762695 15.76904297 C-5.58560333 14.86489151 -5.60357971 13.96074005 -5.62210083 13.02919006 C-5.58605707 8.6176713 -5.33251937 5.85919964 -2.46452332 2.38943481 C-1.24458427 1.20666458 -1.24458427 1.20666458 0 0 Z " fill="#003236" transform="translate(288,296)"/>
<path d="M0 0 C1.78705355 5.36116066 1.22559269 11.17263447 1.24023438 16.78833008 C1.24997991 19.05782171 1.28103343 21.32642243 1.3125 23.59570312 C1.31902652 25.03384879 1.32427837 26.47200092 1.328125 27.91015625 C1.34214355 29.87674194 1.34214355 29.87674194 1.35644531 31.88305664 C1.23881836 32.91164795 1.12119141 33.94023926 1 35 C0.01 35.66 -0.98 36.32 -2 37 C-2.433125 38.2684375 -2.433125 38.2684375 -2.875 39.5625 C-3.24625 40.366875 -3.6175 41.17125 -4 42 C-6.625 42.8125 -6.625 42.8125 -9 43 C-5.26926753 37.21093238 -5.26926753 37.21093238 -3.39526367 35.74291992 C-1.19182719 32.99045569 -1.55904791 30.39334766 -1.48828125 26.92578125 C-1.47033005 26.2419487 -1.45237885 25.55811615 -1.43388367 24.8535614 C-1.37977925 22.67327 -1.3458866 20.49319744 -1.3125 18.3125 C-1.2793268 16.83265183 -1.24483713 15.35283255 -1.20898438 13.87304688 C-1.12405476 10.24890831 -1.05724365 6.62469348 -1 3 C-4.63 2.34 -8.26 1.68 -12 1 C-7.01222852 -1.49388574 -5.33016752 -0.88836125 0 0 Z " fill="#001E29" transform="translate(216,242)"/>
<path d="M0 0 C-1 2 -2 4 -3 6 C-3.66 6 -4.32 6 -5 6 C-5 6.66 -5 7.32 -5 8 C-7.5 9.5 -7.5 9.5 -10 11 C-10 11.66 -10 12.32 -10 13 C-10.66 13 -11.32 13 -12 13 C-11.67 15.31 -11.34 17.62 -11 20 C-12.98 18.35 -14.96 16.7 -17 15 C-16.70579969 11.86886811 -16.05052333 11.04287077 -13.6015625 8.96484375 C-12.61929687 8.29582031 -11.63703125 7.62679688 -10.625 6.9375 C-6.75810275 4.32566984 -6.75810275 4.32566984 -3.2734375 1.25390625 C-2 0 -2 0 0 0 Z " fill="#021319" transform="translate(314,334)"/>
<path d="M0 0 C0.66 0.33 1.32 0.66 2 1 C-1.79026741 6.54326608 -4.93307221 10.67141119 -11.30078125 13.1484375 C-13.36152067 14.0056619 -13.36152067 14.0056619 -15 17 C-17.625 17.6875 -17.625 17.6875 -20 18 C-14.45520056 10.66129486 -7.27434078 5.51056227 0 0 Z " fill="#0991AF" transform="translate(114,62)"/>
<path d="M0 0 C0.99384397 3.25258026 1.04826731 6.03465371 0.87890625 9.421875 C0.83056641 10.44667969 0.78222656 11.47148437 0.73242188 12.52734375 C0.67634766 13.59082031 0.62027344 14.65429688 0.5625 15.75 C0.51029297 16.82894531 0.45808594 17.90789062 0.40429688 19.01953125 C0.27480531 21.67999422 0.13984639 24.34006452 0 27 C-0.66 27 -1.32 27 -2 27 C-3.21433695 22.66282158 -3.22122571 18.54049948 -3.25 14.0625 C-3.270625 13.26392578 -3.29125 12.46535156 -3.3125 11.64257812 C-3.34394793 6.89787191 -3.00015927 3.90810221 0 0 Z " fill="#096E81" transform="translate(84,245)"/>
<path d="M0 0 C0.66 0.66 1.32 1.32 2 2 C0.65421875 1.99214478 0.65421875 1.99214478 -0.71875 1.98413086 C-4.0808986 1.96698147 -7.443 1.95449784 -10.80517578 1.94506836 C-12.25407652 1.94007215 -13.70297231 1.93327291 -15.15185547 1.92456055 C-26.11495382 1.84007096 -26.11495382 1.84007096 -37 3 C-36.34 2.01 -35.68 1.02 -35 0 C-24.02507847 -2.11796731 -10.99702661 -1.92930291 0 0 Z " fill="#0D7C92" transform="translate(346,201)"/>
<path d="M0 0 C0.66 1.32 1.32 2.64 2 4 C1.52691406 4.4125 1.05382812 4.825 0.56640625 5.25 C-3.18125581 8.52281209 -6.9138574 11.81080474 -10.625 15.125 C-14.02773388 18.15620488 -17.47721418 21.10950907 -21 24 C-21.66 23.67 -22.32 23.34 -23 23 C-22.55197021 22.5875 -22.10394043 22.175 -21.64233398 21.75 C-19.57009576 19.83757518 -17.50380068 17.91883781 -15.4375 16 C-14.73302734 15.35160156 -14.02855469 14.70320313 -13.30273438 14.03515625 C-8.54544317 9.60671006 -4.18193609 4.97499061 0 0 Z " fill="#001F27" transform="translate(347,302)"/>
<path d="M0 0 C0.33 0 0.66 0 1 0 C1 15.84 1 31.68 1 48 C-1.31 47.34 -3.62 46.68 -6 46 C-6.33 45.34 -6.66 44.68 -7 44 C-4.69 44.33 -2.38 44.66 0 45 C0 30.15 0 15.3 0 0 Z " fill="#117D8E" transform="translate(214,162)"/>
<path d="M0 0 C0 0.33 0 0.66 0 1 C-1.01320313 1.18175781 -1.01320313 1.18175781 -2.046875 1.3671875 C-2.93890625 1.53476562 -3.8309375 1.70234375 -4.75 1.875 C-6.07257813 2.11863281 -6.07257813 2.11863281 -7.421875 2.3671875 C-9.86947744 2.96796264 -11.80599857 3.77997117 -14 5 C-14 4.34 -14 3.68 -14 3 C-21.59 3 -29.18 3 -37 3 C-37 2.67 -37 2.34 -37 2 C-31.01952301 1.1772523 -25.09122799 0.71758561 -19.0625 0.4375 C-17.79889648 0.37272461 -17.79889648 0.37272461 -16.50976562 0.30664062 C-11.00001319 0.03942399 -5.51609419 -0.03896333 0 0 Z " fill="#15889B" transform="translate(254,18)"/>
<path d="M0 0 C0 0.99 0 1.98 0 3 C0.66 3 1.32 3 2 3 C2 2.34 2 1.68 2 1 C2.66 1 3.32 1 4 1 C4.495 3.475 4.495 3.475 5 6 C4.175 5.690625 3.35 5.38125 2.5 5.0625 C-4.80424935 2.84513859 -12.41981423 2.75639057 -20 2.4375 C-20.96550781 2.39431641 -21.93101562 2.35113281 -22.92578125 2.30664062 C-25.28374425 2.20158287 -27.64179416 2.09943086 -30 2 C-30 1.67 -30 1.34 -30 1 C-26.04900721 0.85712894 -22.09799792 0.71472426 -18.14697266 0.57275391 C-16.14094158 0.5005736 -14.13492385 0.42802266 -12.12890625 0.35546875 C-10.87207031 0.31035156 -9.61523438 0.26523438 -8.3203125 0.21875 C-7.15773926 0.17685547 -5.99516602 0.13496094 -4.79736328 0.09179688 C-3.19880994 0.03933955 -1.59941382 0 0 0 Z " fill="#0C788B" transform="translate(179,188)"/>
<path d="M0 0 C6.6 0 13.2 0 20 0 C19.67 0.99 19.34 1.98 19 3 C16.39521117 3.0809313 13.79293347 3.14045434 11.1875 3.1875 C10.08051758 3.22520508 10.08051758 3.22520508 8.95117188 3.26367188 C6.79296875 3.29296875 6.79296875 3.29296875 3 3 C2.01 2.01 1.02 1.02 0 0 Z " fill="#077F92" transform="translate(181,354)"/>
<path d="M0 0 C0.84675293 -0.0014502 1.69350586 -0.00290039 2.56591797 -0.00439453 C7.96366027 0.08926877 12.68861466 0.8777756 17.875 2.375 C17.875 2.705 17.875 3.035 17.875 3.375 C16.59753906 3.21128906 15.32007813 3.04757813 14.00390625 2.87890625 C8.92531744 2.3146186 3.91703265 2.26101907 -1.1875 2.3125 C-2.05310547 2.31701172 -2.91871094 2.32152344 -3.81054688 2.32617188 C-5.91539539 2.33780087 -8.02020758 2.35572927 -10.125 2.375 C-10.125 3.035 -10.125 3.695 -10.125 4.375 C-11.56157245 4.71230842 -12.99930093 5.04469591 -14.4375 5.375 C-15.63826172 5.6534375 -15.63826172 5.6534375 -16.86328125 5.9375 C-19.125 6.375 -19.125 6.375 -22.125 6.375 C-16.05997246 0.30997246 -8.12225402 0.00148896 0 0 Z " fill="#0C6F80" transform="translate(190.125,240.625)"/>
<path d="M0 0 C0.66 0 1.32 0 2 0 C1.38722388 2.96175123 0.74627478 4.38058783 -1 7 C-2.7633875 8.02597091 -4.52934485 9.04914838 -6.328125 10.01171875 C-8.13474028 10.97312441 -8.13474028 10.97312441 -9.6875 12.8125 C-10.120625 13.204375 -10.55375 13.59625 -11 14 C-13.08203125 13.57421875 -13.08203125 13.57421875 -15 13 C-12.87996003 11.16064138 -10.75442773 9.32843267 -8.625 7.5 C-8.02171875 6.97535156 -7.4184375 6.45070313 -6.796875 5.91015625 C-2.2265625 2 -2.2265625 2 0 2 C0 1.34 0 0.68 0 0 Z " fill="#0B7E90" transform="translate(373,374)"/>
<path d="M0 0 C0.33 0 0.66 0 1 0 C1 10.56 1 21.12 1 32 C3.96731398 30.16343011 3.96731398 30.16343011 6 28 C6.99 28.66 7.98 29.32 9 30 C7.68921847 30.83603378 6.37632511 31.6687574 5.0625 32.5 C4.33160156 32.9640625 3.60070312 33.428125 2.84765625 33.90625 C1 35 1 35 0 35 C0 23.45 0 11.9 0 0 Z " fill="#138899" transform="translate(284,182)"/>
<path d="M0 0 C2.05078125 0.03255208 4.1015625 0.06510417 6.15234375 0.09765625 C1.79849261 4.45150739 -6.71127856 4.02644366 -12.59765625 4.22265625 C-15.68376658 4.22265625 -18.76298721 4.1885303 -21.84765625 4.09765625 C-21.51765625 3.10765625 -21.18765625 2.11765625 -20.84765625 1.09765625 C-18.91599609 1.11505859 -18.91599609 1.11505859 -16.9453125 1.1328125 C-15.26692853 1.14218895 -13.58854299 1.1512893 -11.91015625 1.16015625 C-11.06001953 1.16853516 -10.20988281 1.17691406 -9.33398438 1.18554688 C-8.52509766 1.18876953 -7.71621094 1.19199219 -6.8828125 1.1953125 C-6.13394775 1.20054932 -5.38508301 1.20578613 -4.61352539 1.21118164 C-2.40893459 1.06945141 -2.23323829 0.11803585 0 0 Z " fill="#148A9F" transform="translate(285.84765625,474.90234375)"/>
<path d="M0 0 C0.66 0.33 1.32 0.66 2 1 C-7.04100228 12.89066059 -7.04100228 12.89066059 -14 16 C-11.03982764 9.46720582 -5.75054379 4.18221366 0 0 Z " fill="#011D23" transform="translate(110,204)"/>
<path d="M0 0 C1.29539465 2.13359119 2.03274515 3.47607754 1.875 6 C0.72196182 8.63551585 -0.81929192 10.14970223 -3 12 C-3.66 12 -4.32 12 -5 12 C-5 12.66 -5 13.32 -5 14 C-5.66 14 -6.32 14 -7 14 C-7.33 15.32 -7.66 16.64 -8 18 C-8.66 17.67 -9.32 17.34 -10 17 C-8.68 14.69 -7.36 12.38 -6 10 C-5.34 10 -4.68 10 -4 10 C-3.566875 8.3603125 -3.566875 8.3603125 -3.125 6.6875 C-2 3 -2 3 0 0 Z " fill="#0B889A" transform="translate(405,334)"/>
<path d="M0 0 C0.33 0 0.66 0 1 0 C1.268125 1.11375 1.53625 2.2275 1.8125 3.375 C3.68345756 10.81930295 5.8085437 18.00919097 9 25 C8.34 25 7.68 25 7 25 C1.58299536 19.58299536 0.36310403 13.00194321 -0.19140625 5.36328125 C-0.18819459 3.57438559 -0.10504774 1.78581158 0 0 Z " fill="#087487" transform="translate(84,274)"/>
<path d="M0 0 C12.35246053 -0.47307296 21.13589057 2.06394021 32 8 C29.44855176 8.93045933 28.25993522 9.08564091 25.640625 8.22265625 C24.85171875 7.83980469 24.0628125 7.45695313 23.25 7.0625 C22.45078125 6.68222656 21.6515625 6.30195313 20.828125 5.91015625 C20.22484375 5.60980469 19.6215625 5.30945313 19 5 C19 4.34 19 3.68 19 3 C12.73 2.34 6.46 1.68 0 1 C0 0.67 0 0.34 0 0 Z " fill="#001019" transform="translate(160,190)"/>
<path d="M0 0 C-2.55440415 4.31606218 -2.55440415 4.31606218 -5 6 C-8.77344438 6.23849016 -12.29749549 5.71326707 -16 5 C-13.32975467 3.21983645 -10.94969139 2.02836981 -8 0.8125 C-7.13375 0.44769531 -6.2675 0.08289062 -5.375 -0.29296875 C-3 -1 -3 -1 0 0 Z " fill="#108DA5" transform="translate(176,32)"/>
<path d="M0 0 C-1.78857422 0.39832031 -1.78857422 0.39832031 -3.61328125 0.8046875 C-5.17976175 1.16113217 -6.74616398 1.51792097 -8.3125 1.875 C-9.49102539 2.13603516 -9.49102539 2.13603516 -10.69335938 2.40234375 C-11.45068359 2.57636719 -12.20800781 2.75039063 -12.98828125 2.9296875 C-13.68477783 3.08679199 -14.38127441 3.24389648 -15.09887695 3.40576172 C-17.29734212 3.99513393 -17.29734212 3.99513393 -20 6 C-22.48046875 6.1953125 -22.48046875 6.1953125 -25.1875 6.125 C-26.08855469 6.10695313 -26.98960937 6.08890625 -27.91796875 6.0703125 C-28.60503906 6.04710937 -29.29210937 6.02390625 -30 6 C-25.55553403 3.03702269 -20.73966522 2.42392813 -15.5625 1.3125 C-14.51255859 1.07466797 -13.46261719 0.83683594 -12.38085938 0.59179688 C-10.86395508 0.26211914 -10.86395508 0.26211914 -9.31640625 -0.07421875 C-7.93110718 -0.37718872 -7.93110718 -0.37718872 -6.51782227 -0.6862793 C-3.99504589 -1.00061728 -2.39007173 -0.79948966 0 0 Z " fill="#1A869F" transform="translate(216,22)"/>
<path d="M0 0 C-3.80773693 2.53849129 -7.56055664 3.47302797 -11.9375 4.6875 C-12.74896484 4.92533203 -13.56042969 5.16316406 -14.39648438 5.40820312 C-15.18216797 5.62798828 -15.96785156 5.84777344 -16.77734375 6.07421875 C-17.49140381 6.27619873 -18.20546387 6.47817871 -18.94116211 6.6862793 C-21.25122486 7.03828103 -22.79230597 6.70940527 -25 6 C-24.01 6 -23.02 6 -22 6 C-22 5.34 -22 4.68 -22 4 C-21.40832031 3.87882812 -20.81664062 3.75765625 -20.20703125 3.6328125 C-15.21811684 2.59339813 -15.21811684 2.59339813 -10.4375 0.875 C-6.89225924 -0.39765053 -3.75433065 -0.12726545 0 0 Z " fill="#1687A1" transform="translate(326,467)"/>
<path d="M0 0 C0.99 0.33 1.98 0.66 3 1 C3 1.99 3 2.98 3 4 C9.93 3.34 16.86 2.68 24 2 C17.90585153 6.06276564 10.22264553 7.35712129 3 6 C0 2.88461538 0 2.88461538 0 0 Z " fill="#157D8E" transform="translate(154,299)"/>
<path d="M0 0 C0 0.33 0 0.66 0 1 C-1.50626953 1.07347656 -1.50626953 1.07347656 -3.04296875 1.1484375 C-11.8002132 1.61404247 -20.35054393 2.47449662 -29 4 C-27 1 -27 1 -23.4375 0.234375 C-21.96030471 0.05577795 -20.4808459 -0.10474767 -19 -0.25 C-18.23631104 -0.3329834 -17.47262207 -0.4159668 -16.68579102 -0.50146484 C-10.96471301 -1.0597074 -5.69312872 -0.90367123 0 0 Z " fill="#0F91AB" transform="translate(165,188)"/>
<path d="M0 0 C1.62659769 4.84682148 -0.14311472 8.44292784 -2 13 C-3.5625 16.0625 -3.5625 16.0625 -5 18 C-5.66 18 -6.32 18 -7 18 C-5.06375702 11.79522136 -2.74390859 5.89174281 0 0 Z " fill="#012530" transform="translate(120,122)"/>
<path d="M0 0 C0 0.66 0 1.32 0 2 C-0.639375 2.268125 -1.27875 2.53625 -1.9375 2.8125 C-4.33131686 3.88667752 -4.33131686 3.88667752 -5 7 C-7.97 7 -10.94 7 -14 7 C-12.5438656 4.08773121 -10.50039336 3.68157936 -7.5625 2.375 C-6.07943359 1.70597656 -6.07943359 1.70597656 -4.56640625 1.0234375 C-2 0 -2 0 0 0 Z " fill="#0F8BA1" transform="translate(156,39)"/>
<path d="M0 0 C0.66 0.33 1.32 0.66 2 1 C0.92027262 2.4194169 -0.16395863 3.8354083 -1.25 5.25 C-2.15492188 6.43335938 -2.15492188 6.43335938 -3.078125 7.640625 C-4.93182995 9.91631157 -6.88898954 11.96371558 -9 14 C-9.33 12.35 -9.66 10.7 -10 9 C-9.01 9 -8.02 9 -7 9 C-6.6596875 8.1646875 -6.6596875 8.1646875 -6.3125 7.3125 C-4.64103234 4.36753316 -2.44723648 2.31843456 0 0 Z " fill="#12889C" transform="translate(432,388)"/>
<path d="M0 0 C0.99 0 1.98 0 3 0 C3 0.99 3 1.98 3 3 C3.66 3 4.32 3 5 3 C5.28875 3.763125 5.5775 4.52625 5.875 5.3125 C6.96269013 8.15029308 6.96269013 8.15029308 9 11 C8.625 13.1875 8.625 13.1875 8 15 C6.66407203 12.6889639 5.33115569 10.37628245 4 8.0625 C3.6184375 7.40314453 3.236875 6.74378906 2.84375 6.06445312 C0 1.11328125 0 1.11328125 0 0 Z " fill="#148A9B" transform="translate(46,357)"/>
<path d="M0 0 C1.36420284 4.09260851 0.02860964 6.99217687 -1.25 10.9375 C-1.46785156 11.65357422 -1.68570312 12.36964844 -1.91015625 13.10742188 C-3.11755513 16.91673005 -4.29910996 19.95752681 -7 23 C-6.53499613 17.65245547 -5.06290756 13.32028892 -2.98828125 8.37890625 C-1.84597744 5.62925004 -0.89638628 2.83855655 0 0 Z " fill="#002F39" transform="translate(413,309)"/>
<path d="M0 0 C-0.78246094 0.26554688 -1.56492188 0.53109375 -2.37109375 0.8046875 C-3.88896484 1.33449219 -3.88896484 1.33449219 -5.4375 1.875 C-6.44683594 2.22304687 -7.45617187 2.57109375 -8.49609375 2.9296875 C-11.13971751 3.74055093 -11.13971751 3.74055093 -12 6 C-14.31 6 -16.62 6 -19 6 C-17.42935623 2.85871246 -14.33238922 2.42190313 -11.1875 1.3125 C-10.55779297 1.07466797 -9.92808594 0.83683594 -9.27929688 0.59179688 C-5.86073884 -0.63142274 -3.44077195 -1.43004376 0 0 Z " fill="#001A23" transform="translate(139,193)"/>
<path d="M0 0 C4.44870215 -0.39253254 7.14243493 0.84694043 11 3 C11 4.32 11 5.64 11 7 C6.89188572 5.55007731 3.53144334 3.54592427 0 1 C0 0.67 0 0.34 0 0 Z " fill="#0F8E9F" transform="translate(122,441)"/>
<path d="M0 0 C2.85561959 2.28449568 3.10417865 5.03130392 3.875 8.5 C2.58184939 7.54367001 1.29053147 6.58486149 0 5.625 C-0.71929687 5.09132812 -1.43859375 4.55765625 -2.1796875 4.0078125 C-4.125 2.5 -4.125 2.5 -6.125 0.5 C-3.80251698 -0.32945822 -2.42149638 -0.56976385 0 0 Z " fill="#09859B" transform="translate(381.125,215.5)"/>
<path d="M0 0 C1 2 1 2 0.3125 5.3125 C-0.99462166 8.98488943 -2.30181212 11.21749375 -5 14 C-5.66 14 -6.32 14 -7 14 C-5.53967505 8.68972746 -3.01679014 4.53669968 0 0 Z " fill="#138B9E" transform="translate(53,128)"/>
<path d="M0 0 C0.103125 0.5775 0.20625 1.155 0.3125 1.75 C1.09792798 4.32049158 2.30504197 5.93657284 4 8 C2.56068883 7.54738642 1.12361001 7.08767021 -0.3125 6.625 C-1.11300781 6.36976563 -1.91351563 6.11453125 -2.73828125 5.8515625 C-5 5 -5 5 -8 3 C-5.36 2.67 -2.72 2.34 0 2 C0 1.34 0 0.68 0 0 Z " fill="#0F8DA3" transform="translate(162,456)"/>
<path d="M0 0 C0.33 0.66 0.66 1.32 1 2 C-0.66666667 3.66666667 -2.33333333 5.33333333 -4 7 C-5.2684375 8.3303125 -5.2684375 8.3303125 -6.5625 9.6875 C-8.73641293 11.74993022 -10.33769821 12.76734864 -13 14 C-9.20962911 8.52964787 -5.24972347 4.10037573 0 0 Z " fill="#107F95" transform="translate(305,282)"/>
<path d="M0 0 C1 2 1 2 0.1875 4.875 C-1.78931751 10.07715134 -1.78931751 10.07715134 -3 12 C-3.99 12.33 -4.98 12.66 -6 13 C-3.10933941 3.40546697 -3.10933941 3.40546697 0 0 Z " fill="#0D7F90" transform="translate(157,258)"/>
<path d="M0 0 C6.30367803 0.58367389 11.98660063 2.04071619 18 4 C18 4.33 18 4.66 18 5 C15.69 5.33 13.38 5.66 11 6 C10.67 5.01 10.34 4.02 10 3 C6.7 2.67 3.4 2.34 0 2 C0 1.34 0 0.68 0 0 Z " fill="#18879D" transform="translate(303,25)"/>
<path d="M0 0 C2.91488977 2.6234008 4.88503898 5.71816394 7 9 C6.67 9.66 6.34 10.32 6 11 C5.01 10.67 4.02 10.34 3 10 C2.01 10.33 1.02 10.66 0 11 C0.185625 10.29875 0.37125 9.5975 0.5625 8.875 C1.05156976 5.66111302 0.66231558 3.16439664 0 0 Z " fill="#128AA0" transform="translate(442,122)"/>
<path d="M0 0 C0.66 0.33 1.32 0.66 2 1 C-0.64478179 5.0367722 -3.75175242 6.87587621 -8 9 C-8.33 8.01 -8.66 7.02 -9 6 C-6.03 4.02 -3.06 2.04 0 0 Z " fill="#00141E" transform="translate(293,211)"/>
<path d="M0 0 C4.62 2.31 9.24 4.62 14 7 C10.23375329 8.25541557 8.62811066 7.37061958 5 6 C5 5.34 5 4.68 5 4 C2.525 3.01 2.525 3.01 0 2 C0 1.34 0 0.68 0 0 Z " fill="#118192" transform="translate(216,384)"/>
<path d="M0 0 C3.98175544 2.10148204 6.35039045 4.36905358 9 8 C8.01 8.495 8.01 8.495 7 9 C5.82460004 8.07347299 4.65989423 7.13336613 3.5 6.1875 C2.52546875 5.40439453 2.52546875 5.40439453 1.53125 4.60546875 C0 3 0 3 0 0 Z " fill="#0C879D" transform="translate(108,319)"/>
<path d="M0 0 C1.48046875 1.03125 1.48046875 1.03125 3 3 C3.2719239 5.59643464 3.37409761 7.91290049 3.3125 10.5 C3.31572266 11.17675781 3.31894531 11.85351562 3.32226562 12.55078125 C3.28230168 16.23473014 3.09194697 17.86207954 1 21 C1.01160156 19.90300781 1.02320313 18.80601562 1.03515625 17.67578125 C1.04453964 16.22135588 1.05363925 14.76692865 1.0625 13.3125 C1.07087891 12.59126953 1.07925781 11.87003906 1.08789062 11.12695312 C1.10543632 7.28444618 0.93524221 3.73360474 0 0 Z " fill="#0F8395" transform="translate(353,268)"/>
<path d="M0 0 C-2.60526888 2.60526888 -5.17939234 3.34134224 -8.625 4.625 C-9.81351562 5.07101563 -11.00203125 5.51703125 -12.2265625 5.9765625 C-13.14179688 6.31429687 -14.05703125 6.65203125 -15 7 C-15 6.34 -15 5.68 -15 5 C-14.01 5 -13.02 5 -12 5 C-12 4.34 -12 3.68 -12 3 C-7.77050005 0.58314288 -4.87664009 -0.34833144 0 0 Z " fill="#0F7A8F" transform="translate(309,204)"/>
<path d="M0 0 C3.28788824 3.11016455 5.83735988 6.01618925 8 10 C5.03 9.505 5.03 9.505 2 9 C2 7.35 2 5.7 2 4 C1.34 4 0.68 4 0 4 C0 2.68 0 1.36 0 0 Z " fill="#12899D" transform="translate(432,108)"/>
<path d="M0 0 C2 0 2 0 3.625 1.5 C4.07875 1.995 4.5325 2.49 5 3 C5.33 2.34 5.66 1.68 6 1 C6.99 1.66 7.98 2.32 9 3 C8.34 4.65 7.68 6.3 7 8 C1.125 3.375 1.125 3.375 0 0 Z " fill="#0F8EA3" transform="translate(69,392)"/>
<path d="M0 0 C3.375 0.5625 3.375 0.5625 7 2 C8.4375 5.625 8.4375 5.625 9 9 C7.87105124 8.06725891 6.74699124 7.12859878 5.625 6.1875 C4.99851562 5.66542969 4.37203125 5.14335937 3.7265625 4.60546875 C2 3 2 3 0 0 Z " fill="#011823" transform="translate(333,386)"/>
<path d="M0 0 C-0.33 1.32 -0.66 2.64 -1 4 C-4.63 3.01 -8.26 2.02 -12 1 C-7.01222852 -1.49388574 -5.33016752 -0.88836125 0 0 Z " fill="#011B28" transform="translate(216,242)"/>
<path d="M0 0 C-0.66 1.32 -1.32 2.64 -2 4 C-2.66 4 -3.32 4 -4 4 C-4 4.66 -4 5.32 -4 6 C-5.98 6 -7.96 6 -10 6 C-7.35570758 3.077361 -4.105808 0 0 0 Z " fill="#118B9F" transform="translate(138,48)"/>
<path d="M0 0 C1.32 0.33 2.64 0.66 4 1 C1.36 3.64 -1.28 6.28 -4 9 C-4.33 8.01 -4.66 7.02 -5 6 C-3.625 4.5 -3.625 4.5 -2 3 C-1.34 3 -0.68 3 0 3 C0 2.01 0 1.02 0 0 Z " fill="#00121A" transform="translate(380,364)"/>
<path d="M0 0 C1.8125 0.125 1.8125 0.125 4 1 C5.06775224 2.96466413 6.06553465 4.96855359 7 7 C8.56102491 8.81554159 8.56102491 8.81554159 10 10 C9.34 10.66 8.68 11.32 8 12 C6.66382103 10.18959679 5.33112616 8.3766216 4 6.5625 C3.2575 5.55316406 2.515 4.54382813 1.75 3.50390625 C0 1 0 1 0 0 Z " fill="#0D8496" transform="translate(393,232)"/>
<path d="M0 0 C0 3.99191204 -1.25498212 5.18079244 -4 8 C-6.75 8.8125 -6.75 8.8125 -9 9 C-8.06725891 7.87105124 -7.12859878 6.74699124 -6.1875 5.625 C-5.66542969 4.99851562 -5.14335938 4.37203125 -4.60546875 3.7265625 C-3 2 -3 2 0 0 Z " fill="#118A9F" transform="translate(103,71)"/>
<path d="M0 0 C0 2 0 4 0 6 C-2.31 7.32 -4.62 8.64 -7 10 C-5.33248852 6.05860922 -2.77289351 3.2107188 0 0 Z " fill="#022932" transform="translate(103,210)"/>
<path d="M0 0 C4.50802601 1.25805377 7.4912812 2.90407165 11 6 C6.64477147 5.49357808 3.55760365 4.61588503 0 2 C0 1.34 0 0.68 0 0 Z " fill="#00121E" transform="translate(360,208)"/>
<path d="M0 0 C7.38461538 -0.49230769 7.38461538 -0.49230769 10.5 2 C10.995 2.66 11.49 3.32 12 4 C7.6822542 3.49202991 3.96697886 2.80317221 0 1 C0 0.67 0 0.34 0 0 Z " fill="#0F7A90" transform="translate(348,203)"/>
<path d="M0 0 C1.12894876 0.93274109 2.25300876 1.87140122 3.375 2.8125 C4.00148438 3.33457031 4.62796875 3.85664062 5.2734375 4.39453125 C7 6 7 6 9 9 C6.03 8.01 3.06 7.02 0 6 C0 4.02 0 2.04 0 0 Z " fill="#0F8EA1" transform="translate(406,80)"/>
<path d="M0 0 C2.64 0.33 5.28 0.66 8 1 C3.56 3.96 3.56 3.96 1 5 C0.01 4.67 -0.98 4.34 -2 4 C-1.34 2.68 -0.68 1.36 0 0 Z " fill="#138DA3" transform="translate(338,458)"/>
<path d="M0 0 C1.24546405 2.49092811 0.7767578 3.41080733 0 6 C-2.31 6.66 -4.62 7.32 -7 8 C-6.02133662 6.85373678 -5.04205413 5.70800212 -4.0625 4.5625 C-3.51722656 3.92441406 -2.97195313 3.28632813 -2.41015625 2.62890625 C-1.63204305 1.73008851 -0.84063472 0.84063472 0 0 Z " fill="#0F8198" transform="translate(382,366)"/>
<path d="M0 0 C-1 2 -2 4 -3 6 C-6.0625 6.625 -6.0625 6.625 -9 7 C-3.34042553 0 -3.34042553 0 0 0 Z " fill="#022B34" transform="translate(314,334)"/>
<path d="M0 0 C0 3.30941204 -0.40339294 5.11090151 -2 8 C-4.625 8.8125 -4.625 8.8125 -7 9 C-2.85714286 2.57142857 -2.85714286 2.57142857 0 0 Z " fill="#02252F" transform="translate(214,276)"/>
<path d="M0 0 C2.31 0.33 4.62 0.66 7 1 C7.33 2.98 7.66 4.96 8 7 C2.25 3.375 2.25 3.375 0 0 Z " fill="#0F8C9F" transform="translate(94,419)"/>
<path d="M0 0 C0.66 0.33 1.32 0.66 2 1 C1.67 1.66 1.34 2.32 1 3 C1.99 3.33 2.98 3.66 4 4 C4.33 5.65 4.66 7.3 5 9 C3.02 7.35 1.04 5.7 -1 4 C-0.67 2.68 -0.34 1.36 0 0 Z " fill="#001D25" transform="translate(298,345)"/>
<path d="M0 0 C0.99 0.33 1.98 0.66 3 1 C2.01 3.31 1.02 5.62 0 8 C-0.66 8 -1.32 8 -2 8 C-2.33 8.66 -2.66 9.32 -3 10 C-2.21302675 6.58978257 -1.12880057 3.31114834 0 0 Z " fill="#001E28" transform="translate(401,336)"/>
<path d="M0 0 C1.48484412 0.39595843 2.9628831 0.81750706 4.4375 1.25 C5.26121094 1.48203125 6.08492188 1.7140625 6.93359375 1.953125 C9 3 9 3 9.78515625 5.109375 C9.85605469 5.73328125 9.92695313 6.3571875 10 7 C5.56541027 5.6062718 3.12621626 3.39417765 0 0 Z " fill="#00212A" transform="translate(120,328)"/>
<path d="M0 0 C2.64 1.98 5.28 3.96 8 6 C7.01 6.66 6.02 7.32 5 8 C2.27573689 5.64722731 1.1858237 3.37503669 0 0 Z " fill="#0E8A9E" transform="translate(385,62)"/>
<path d="M0 0 C2.0374763 0.22858114 4.08040303 0.41024278 6.125 0.5625 C7.76855469 0.68818359 7.76855469 0.68818359 9.4453125 0.81640625 C10.28835938 0.87699219 11.13140625 0.93757813 12 1 C12 1.33 12 1.66 12 2 C9.5622037 2.05397335 7.12560315 2.09365616 4.6875 2.125 C3.65206055 2.15013672 3.65206055 2.15013672 2.59570312 2.17578125 C-1.17135396 2.21217794 -2.78431704 2.14378864 -6 0 C-2.25 -1.125 -2.25 -1.125 0 0 Z " fill="#0B8EAB" transform="translate(256,19)"/>
<path d="M0 0 C1.85776765 3.13498292 2.20140476 5.37471432 2 9 C-2 4.375 -2 4.375 -2 1 C-1.34 0.67 -0.68 0.34 0 0 Z " fill="#1389A0" transform="translate(58,371)"/>
<path d="M0 0 C0.33 1.32 0.66 2.64 1 4 C-1.08676076 6.96539687 -2.30632515 7.07658129 -6 8 C-4.02 5.36 -2.04 2.72 0 0 Z " fill="#0A7E8F" transform="translate(389,358)"/>
<path d="M0 0 C5.875 4.625 5.875 4.625 7 8 C6.34 8 5.68 8 5 8 C5 7.34 5 6.68 5 6 C3.35 5.67 1.7 5.34 0 5 C0 3.35 0 1.7 0 0 Z " fill="#0E7E8F" transform="translate(299,351)"/>
<path d="M0 0 C1.65 0.33 3.3 0.66 5 1 C0.375 6.875 0.375 6.875 -3 8 C-2.67 7.01 -2.34 6.02 -2 5 C-1.34 5 -0.68 5 0 5 C0 3.35 0 1.7 0 0 Z " fill="#108297" transform="translate(331,313)"/>
<path d="M0 0 C0.99 0.33 1.98 0.66 3 1 C2.04882866 2.1725131 1.08882991 3.33787015 0.125 4.5 C-0.40867187 5.1496875 -0.94234375 5.799375 -1.4921875 6.46875 C-1.98976563 6.9740625 -2.48734375 7.479375 -3 8 C-3.66 8 -4.32 8 -5 8 C-3.8141763 4.62496331 -2.72426311 2.35277269 0 0 Z " fill="#001623" transform="translate(288,296)"/>
<path d="M0 0 C1.65 0 3.3 0 5 0 C0.25 4.875 0.25 4.875 -2 6 C-2.33 5.01 -2.66 4.02 -3 3 C-2.01 2.67 -1.02 2.34 0 2 C0 1.34 0 0.68 0 0 Z " fill="#0C8C9C" transform="translate(204,282)"/>
<path d="M0 0 C0.66 0.33 1.32 0.66 2 1 C0.63016497 4.16115776 0.0109362 4.9927092 -3 7 C-3.99 6.67 -4.98 6.34 -6 6 C-4.02 4.02 -2.04 2.04 0 0 Z " fill="#0E7E92" transform="translate(166,248)"/>
<path d="M0 0 C-1.7902061 0.67057887 -3.58221489 1.3363469 -5.375 2 C-6.37273437 2.37125 -7.37046875 2.7425 -8.3984375 3.125 C-11 4 -11 4 -13 4 C-13 3.01 -13 2.02 -13 1 C-11.58622218 0.63447197 -10.16879424 0.28304505 -8.75 -0.0625 C-7.96109375 -0.25972656 -7.1721875 -0.45695313 -6.359375 -0.66015625 C-3.89605178 -1.01497267 -2.34395868 -0.76877544 0 0 Z " fill="#128295" transform="translate(135,193)"/>
<path d="M0 0 C1.98 0.66 3.96 1.32 6 2 C4.35 3.65 2.7 5.3 1 7 C0.67 6.34 0.34 5.68 0 5 C0.33 4.01 0.66 3.02 1 2 C0.34 1.67 -0.32 1.34 -1 1 C-0.67 0.67 -0.34 0.34 0 0 Z " fill="#0C8DA1" transform="translate(379,434)"/>
<path d="M0 0 C0.33 0.66 0.66 1.32 1 2 C0.01 3.485 0.01 3.485 -1 5 C-4.625 5.1875 -4.625 5.1875 -8 5 C-6.60203108 2.20406217 -4.86525011 2.04826223 -2 1 C-1.34 0.67 -0.68 0.34 0 0 Z " fill="#0D7F91" transform="translate(350,393)"/>
<path d="M0 0 C1.42944945 2.35438733 2.08661261 3.48032433 1.625 6.25 C1.41875 6.8275 1.2125 7.405 1 8 C-0.32 8 -1.64 8 -3 8 C-1.125 2.25 -1.125 2.25 0 0 Z " fill="#108EA3" transform="translate(44,144)"/>
<path d="M0 0 C1.65 1.65 3.3 3.3 5 5 C2.125 4.6875 2.125 4.6875 -1 4 C-1.66 3.01 -2.32 2.02 -3 1 C-2.01 0.67 -1.02 0.34 0 0 Z " fill="#0B8FA8" transform="translate(415,89)"/>
<path d="M0 0 C0.66 0.33 1.32 0.66 2 1 C0.35 2.98 -1.3 4.96 -3 7 C-3.99 6.67 -4.98 6.34 -6 6 C-4 4 -2 2 0 0 Z " fill="#128A9F" transform="translate(114,62)"/>
<path d="M0 0 C2.91517292 1.07401108 4.77810176 1.77810176 7 4 C4.39417629 4.93065133 3.35801776 5.14917407 0.75 4.0625 C0.1725 3.711875 -0.405 3.36125 -1 3 C-0.67 2.01 -0.34 1.02 0 0 Z " fill="#0D8DA5" transform="translate(351,42)"/>
<path d="M0 0 C2.88437779 1.29299694 4.87219421 2.65941363 7 5 C6.01 5.33 5.02 5.66 4 6 C1.8125 4.75 1.8125 4.75 0 3 C0 2.01 0 1.02 0 0 Z " fill="#0A899B" transform="translate(117,327)"/>
<path d="M0 0 C-0.5625 1.875 -0.5625 1.875 -2 4 C-5.625 5.25 -5.625 5.25 -9 6 C-3.2 0 -3.2 0 0 0 Z " fill="#138B9F" transform="translate(128,54)"/>
<path d="M0 0 C3.34373475 0.55728913 6.03312999 1.35173889 9 3 C9 3.66 9 4.32 9 5 C5.22454612 3.90931332 2.52956528 3.0916909 0 0 Z " fill="#001A25" transform="translate(243,398)"/>
<path d="M0 0 C0.99 0.33 1.98 0.66 3 1 C0.36 2.98 -2.28 4.96 -5 7 C-5 6.01 -5 5.02 -5 4 C-2.6875 1.75 -2.6875 1.75 0 0 Z " fill="#00111B" transform="translate(360,383)"/>
<path d="M0 0 C1.32 0.33 2.64 0.66 4 1 C2.37660195 2.70884005 0.70680947 4.37446717 -1 6 C-1.66 6 -2.32 6 -3 6 C-3 5.34 -3 4.68 -3 4 C-2.34 4 -1.68 4 -1 4 C-0.67 2.68 -0.34 1.36 0 0 Z " fill="#0D8095" transform="translate(323,322)"/>
<path d="M0 0 C2.0625 0.4375 2.0625 0.4375 4 1 C2.69593116 3.01920337 1.36176581 5.01924973 0 7 C-0.33 7 -0.66 7 -1 7 C-1.04254356 5.00045254 -1.04080783 2.99958364 -1 1 C-0.67 0.67 -0.34 0.34 0 0 Z " fill="#0B8B9B" transform="translate(92,219)"/>
<path d="M0 0 C1.9453125 -0.29296875 1.9453125 -0.29296875 4.125 -0.1875 C5.40375 -0.125625 6.6825 -0.06375 8 0 C4.99382731 3.00617269 2.17618402 2.59585316 -2 3 C-1.34 2.01 -0.68 1.02 0 0 Z " fill="#138799" transform="translate(138,189)"/>
<path d="M0 0 C0.33 0 0.66 0 1 0 C1 2.64 1 5.28 1 8 C-0.98 8.99 -0.98 8.99 -3 10 C-2.01 6.7 -1.02 3.4 0 0 Z " fill="#1A8AA5" transform="translate(36,161)"/>
<path d="M0 0 C0.33 1.32 0.66 2.64 1 4 C1.99 4 2.98 4 4 4 C3.67 4.99 3.34 5.98 3 7 C1.02 5.35 -0.96 3.7 -3 2 C-2.01 1.34 -1.02 0.68 0 0 Z " fill="#12899B" transform="translate(109,428)"/>
<path d="M0 0 C0.99 0.33 1.98 0.66 3 1 C1.02 3.97 1.02 3.97 -1 7 C-2 4 -2 4 -1.0625 1.8125 C-0.5365625 0.9153125 -0.5365625 0.9153125 0 0 Z " fill="#0E8D9E" transform="translate(348,296)"/>
<path d="M0 0 C0 0.66 0 1.32 0 2 C-0.99 2 -1.98 2 -3 2 C-3.33 3.32 -3.66 4.64 -4 6 C-5.32 5.34 -6.64 4.68 -8 4 C-2.25 0 -2.25 0 0 0 Z " fill="#001A24" transform="translate(120,199)"/>
<path d="M0 0 C0.66 0.99 1.32 1.98 2 3 C5.06556598 3.73343428 5.06556598 3.73343428 8 4 C8 4.33 8 4.66 8 5 C5.03 5 2.06 5 -1 5 C-0.67 3.35 -0.34 1.7 0 0 Z " fill="#001923" transform="translate(105,156)"/>
<path d="M0 0 C0.66 1.32 1.32 2.64 2 4 C0.68 4.99 -0.64 5.98 -2 7 C-2.66 6.67 -3.32 6.34 -4 6 C-2.68 4.02 -1.36 2.04 0 0 Z " fill="#1389A3" transform="translate(69,105)"/>
<path d="" fill="#FFFFFF" transform="translate(0,0)"/>
<path d="" fill="#FFFFFF" transform="translate(0,0)"/>
<path d="" fill="#FFFFFF" transform="translate(0,0)"/>
<path d="" fill="#FFFFFF" transform="translate(0,0)"/>
<path d="" fill="#FFFFFF" transform="translate(0,0)"/>
<path d="" fill="#FFFFFF" transform="translate(0,0)"/>
<path d="" fill="#FFFFFF" transform="translate(0,0)"/>
<path d="" fill="#FFFFFF" transform="translate(0,0)"/>
<path d="" fill="#FFFFFF" transform="translate(0,0)"/>
<path d="" fill="#FFFFFF" transform="translate(0,0)"/>
<path d="" fill="#FFFFFF" transform="translate(0,0)"/>
<path d="" fill="#FFFFFF" transform="translate(0,0)"/>
<path d="" fill="#FFFFFF" transform="translate(0,0)"/>
<path d="" fill="#FFFFFF" transform="translate(0,0)"/>
<path d="" fill="#FFFFFF" transform="translate(0,0)"/>
<path d="" fill="#FFFFFF" transform="translate(0,0)"/>
<path d="" fill="#FFFFFF" transform="translate(0,0)"/>
<path d="" fill="#FFFFFF" transform="translate(0,0)"/>
<path d="" fill="#FFFFFF" transform="translate(0,0)"/>
<path d="" fill="#FFFFFF" transform="translate(0,0)"/>
<path d="" fill="#FFFFFF" transform="translate(0,0)"/>
<path d="" fill="#FFFFFF" transform="translate(0,0)"/>
<path d="" fill="#FFFFFF" transform="translate(0,0)"/>
<path d="" fill="#FFFFFF" transform="translate(0,0)"/>
<path d="" fill="#FFFFFF" transform="translate(0,0)"/>
<path d="" fill="#FFFFFF" transform="translate(0,0)"/>
<path d="" fill="#FFFFFF" transform="translate(0,0)"/>
<path d="" fill="#FFFFFF" transform="translate(0,0)"/>
<path d="" fill="#FFFFFF" transform="translate(0,0)"/>
</svg>
