<?xml version="1.0" encoding="UTF-8"?>
<svg version="1.1" xmlns="http://www.w3.org/2000/svg" width="500" height="500">
<path d="M0 0 C11.74060073 10.37717613 22.20116357 21.31850154 31.546875 33.890625 C31.9706543 34.44830566 32.39443359 35.00598633 32.83105469 35.58056641 C39.58662091 44.4780781 45.16874242 53.83053786 50.38720703 63.70166016 C51.45406966 65.71544759 52.54352677 67.71528102 53.63671875 69.71484375 C81.09310594 121.04166998 83.98049053 183.59168937 68.546875 238.890625 C68.32161133 239.69902832 68.09634766 240.50743164 67.86425781 241.34033203 C57.90581504 275.98648383 38.06228144 306.80184172 13.546875 332.890625 C12.76231934 333.7261792 12.76231934 333.7261792 11.96191406 334.57861328 C2.59445717 344.47003071 -7.33053558 353.02925692 -18.453125 360.890625 C-19.10410156 361.35388184 -19.75507813 361.81713867 -20.42578125 362.29443359 C-53.38916211 385.44371697 -90.60784776 398.43179103 -130.453125 402.890625 C-132.19722656 403.08785156 -132.19722656 403.08785156 -133.9765625 403.2890625 C-191.59166175 408.6587317 -252.73702751 390.84270034 -297.453125 353.890625 C-298.48179687 353.06433594 -299.51046875 352.23804688 -300.5703125 351.38671875 C-313.42157154 340.92941835 -325.4504725 329.11168123 -335.453125 315.890625 C-335.87899902 315.33584473 -336.30487305 314.78106445 -336.74365234 314.20947266 C-343.23997531 305.72349246 -349.13100317 297.01430258 -354.41210938 287.72167969 C-355.40743881 285.97098298 -356.42203022 284.23127944 -357.4375 282.4921875 C-376.00384472 249.44409389 -384.6126598 211.96818669 -384.703125 174.265625 C-384.70479675 173.59953217 -384.70646851 172.93343933 -384.70819092 172.24716187 C-384.71021102 158.65695117 -383.45560017 145.33434339 -381.453125 131.890625 C-381.3296167 130.95105957 -381.2061084 130.01149414 -381.07885742 129.04345703 C-379.83785812 120.42809979 -377.29667486 112.35385778 -374.515625 104.140625 C-374.15355957 103.06263138 -374.15355957 103.06263138 -373.78417969 101.96286011 C-366.94897624 81.71508161 -358.35334826 62.69062795 -346.453125 44.890625 C-346.0317627 44.25979004 -345.61040039 43.62895508 -345.17626953 42.97900391 C-339.18730311 34.11832692 -332.52931029 25.90069786 -325.453125 17.890625 C-324.9979248 17.37226074 -324.54272461 16.85389648 -324.07373047 16.31982422 C-313.96445362 4.86024965 -302.83850409 -5.15288367 -290.453125 -14.109375 C-289.81584473 -14.57069824 -289.17856445 -15.03202148 -288.52197266 -15.50732422 C-256.39153598 -38.46429966 -220.32373456 -51.45895306 -181.453125 -57.109375 C-180.77797852 -57.2139502 -180.10283203 -57.31852539 -179.40722656 -57.42626953 C-114.14958946 -66.24188556 -49.03897367 -42.16727035 0 0 Z " fill="#D7D7D7" transform="translate(403.453125,77.109375)"/>
<path d="M0 0 C86.46 0 172.92 0 262 0 C261 6 261 6 258 11 C253.05 24.86 248.1 38.72 243 53 C208.35 53.33 173.7 53.66 138 54 C149.28020809 61.80988058 149.28020809 61.80988058 160.953125 68.99609375 C164.57426467 71.7462721 166.23644387 73.72989606 166.92773438 78.16845703 C167.32490643 83.15374259 167.05042927 88.07943647 166.75 93.0625 C166.6897243 94.803852 166.63498578 96.54540497 166.5859375 98.28710938 C166.45448188 102.52974924 166.24800332 106.76264076 166 111 C166.92941406 110.45730469 167.85882813 109.91460937 168.81640625 109.35546875 C170.06498532 108.63260718 171.31368999 107.90996253 172.5625 107.1875 C173.17158203 106.83107422 173.78066406 106.47464844 174.40820312 106.10742188 C179.7635782 103.01887223 185.26445387 100.59176343 191.0625 98.4375 C191.67222656 98.20933594 192.28195312 97.98117188 192.91015625 97.74609375 C193.59980469 97.49988281 194.28945313 97.25367188 195 97 C195.8353125 96.64679688 196.670625 96.29359375 197.53125 95.9296875 C202.50935959 94.59546444 207.30510484 94.66191797 212.4375 94.6875 C213.49904297 94.68878906 214.56058594 94.69007813 215.65429688 94.69140625 C224.08650544 94.79380101 231.85815324 95.80796434 240 98 C240 98.66 240 99.32 240 100 C241.01964844 100.09539062 242.03929687 100.19078125 243.08984375 100.2890625 C259.09908865 103.1998343 274.76164985 118.43798809 284 131 C285.04607422 132.34384766 285.04607422 132.34384766 286.11328125 133.71484375 C302.19982933 154.83033153 306.81654672 180.57223478 303.50390625 206.63671875 C301.34341268 220.28459567 296.40664094 232.40969158 289 244 C288.40445312 244.96421875 287.80890625 245.9284375 287.1953125 246.921875 C274.4709658 266.87956401 257.11683492 282.338581 238 296 C236.99839844 296.71712158 236.99839844 296.71712158 235.9765625 297.44873047 C234.31889389 298.6341466 232.65961502 299.81731043 231 301 C226.87647806 299.41850806 224.41225385 296.41317483 221.5625 293.1875 C214.45568401 285.30904877 206.94137738 277.87480194 199.390625 270.42578125 C197.07419376 268.07528484 194.87248245 265.66008525 192.6875 263.1875 C188.61216089 258.62667586 184.3774818 254.27013211 180 250 C181.37955131 246.7665131 182.83579819 245.06511982 185.640625 242.96875 C186.37434326 242.411875 187.10806152 241.855 187.86401367 241.28125 C188.65138916 240.6934375 189.43876465 240.105625 190.25 239.5 C198.42309451 233.26607748 206.32568428 226.8371949 214 220 C214.96196289 219.14873535 214.96196289 219.14873535 215.94335938 218.28027344 C224.10912604 211.01520115 232.03185654 203.93628692 237 194 C237.66 194 238.32 194 239 194 C239.12375 193.29875 239.2475 192.5975 239.375 191.875 C240 189 240 189 241.0078125 186.29296875 C242.81241412 180.30368071 242.82345655 174.17592411 242 168 C239.9835792 164.75269656 237.37366339 163.68683169 234 162 C216.05451173 160.64365496 203.42806946 167.93795513 190.11303711 179.34936523 C177.62104368 189.53733092 177.62104368 189.53733092 168 202 C167.34 202 166.68 202 166 202 C166 235.99 166 269.98 166 305 C146 314 146 314 137.1875 311.0625 C134.83691406 309.82641602 134.83691406 309.82641602 133.078125 308.62890625 C129.63952945 306.3838522 126.13239146 304.43755345 122.48364258 302.55639648 C119.63027269 301.08323916 116.81682807 299.54167009 114 298 C114 297.34 114 296.68 114 296 C112.35 295.67 110.7 295.34 109 295 C104.38 292.36 99.76 289.72 95 287 C95 275.78 95 264.56 95 253 C91.37 253.99 87.74 254.98 84 256 C80.71020508 256.38818359 80.71020508 256.38818359 78.01953125 256.3984375 C76.5032312 256.40762207 76.5032312 256.40762207 74.95629883 256.41699219 C73.91884521 256.40313477 72.8813916 256.38927734 71.8125 256.375 C70.71897217 256.36629883 69.62544434 256.35759766 68.4987793 256.34863281 C59.67260388 256.18984886 51.55329706 255.18740056 43 253 C41.15341797 252.54753906 41.15341797 252.54753906 39.26953125 252.0859375 C31.98399193 250.16499144 25.60724495 247.57386872 19 244 C17.43770266 243.27039921 15.87519661 242.54124522 14.3125 241.8125 C9.67322671 239.48916378 5.33830399 236.77239554 1 233.9375 C0.01060425 233.3019519 0.01060425 233.3019519 -0.9987793 232.65356445 C-4.34054911 230.42499317 -6.49897265 228.75680858 -8 225 C-10.02463255 224.34786708 -10.02463255 224.34786708 -12 224 C-12.33 223.34 -12.66 222.68 -13 222 C-13.88945313 221.59587891 -13.88945313 221.59587891 -14.796875 221.18359375 C-22.83466501 216.86541933 -28.83843682 205.36881059 -34 198 C-34.4846875 197.33613281 -34.969375 196.67226563 -35.46875 195.98828125 C-45.11611967 181.95841743 -46.7458504 161.83472834 -44.5 145.32421875 C-40.3696557 124.22660781 -29.63488675 106.88614465 -11.796875 94.7421875 C7.20755121 82.90423486 25.10199307 82.06337238 47 83 C47.85795166 83.03577148 48.71590332 83.07154297 49.59985352 83.10839844 C54.94237597 83.49974231 58.58828513 84.99307358 63.0625 87.875 C68.48031935 91.19827453 68.48031935 91.19827453 74.3125 93.6875 C78.85604694 95.30469467 82.84922792 97.56910802 87 100 C87 100.66 87 101.32 87 102 C89.31 102.66 91.62 103.32 94 104 C94 87.17 94 70.34 94 53 C55.39 53 16.78 53 -23 53 C-19.62568716 42.87706147 -19.62568716 42.87706147 -17.40625 37.8984375 C-16.93316406 36.83109375 -16.46007812 35.76375 -15.97265625 34.6640625 C-15.48667969 33.57867187 -15.00070313 32.49328125 -14.5 31.375 C-13.53101153 29.1954185 -12.56225514 27.01573381 -11.59375 24.8359375 C-11.14386719 23.8262793 -10.69398437 22.81662109 -10.23046875 21.77636719 C-8.79140693 18.52934118 -7.38658781 15.26972395 -6 12 C-5.34 12 -4.68 12 -4 12 C-3.8453125 10.9790625 -3.8453125 10.9790625 -3.6875 9.9375 C-3 7 -3 7 0 0 Z " fill="#010101" transform="translate(119,89)"/>
<path d="M0 0 C2.58346239 29.29778837 2.58346239 29.29778837 -2.84765625 37.18359375 C-6.39905316 41.16639263 -10.50354191 44.16789632 -15 47 C-15.66128906 47.44182617 -16.32257813 47.88365234 -17.00390625 48.33886719 C-22.33883159 51.8658456 -27.56981292 55.06774239 -34 56 C-34.33 56.99 -34.66 57.98 -35 59 C-37.67867484 59.90295804 -40.18817159 60.593961 -42.9375 61.1875 C-44.09523926 61.44031738 -44.09523926 61.44031738 -45.27636719 61.69824219 C-57.94489847 64.33818351 -57.94489847 64.33818351 -62 63 C-67.2465651 58.0407468 -68.98262438 50.34221168 -69.37109375 43.36328125 C-69.71329057 29.34149051 -67.58694955 19.20860663 -58.23828125 8.2578125 C-41.73925099 -8.38518835 -20.66950415 -6.88983472 0 0 Z " fill="#D6D6D6" transform="translate(214,230)"/>
<path d="M0 0 C2.15836666 2.69281573 3.63378007 5.16776721 4.8671875 8.38671875 C5.19299805 9.23363281 5.51880859 10.08054688 5.85449219 10.953125 C6.19125977 11.85546875 6.52802734 12.7578125 6.875 13.6875 C7.22723633 14.62722656 7.57947266 15.56695312 7.94238281 16.53515625 C20.91314094 51.63110309 20.91314094 51.63110309 20 68 C17.6509287 64.47639306 17.24825157 61.33576032 16.625 57.25 C13.96641952 41.12471995 9.15272307 25.4976956 2.92578125 10.39453125 C2.37470703 9.05455078 2.37470703 9.05455078 1.8125 7.6875 C1.46832031 6.86636719 1.12414062 6.04523438 0.76953125 5.19921875 C0 3 0 3 0 0 Z " fill="#C5C3C4" transform="translate(459,153)"/>
<path d="M0 0 C0.99 0 1.98 0 3 0 C3 10.56 3 21.12 3 32 C2.01 32.495 2.01 32.495 1 33 C0.67 22.11 0.34 11.22 0 0 Z " fill="#989898" transform="translate(211,230)"/>
<path d="M0 0 C4.47207672 3.65067488 8.29813215 7.38391712 12.03515625 11.7734375 C16.559024 16.89988804 21.29655292 22.19770195 27 26 C27 26.66 27 27.32 27 28 C23.63103387 26.53880723 21.42852601 24.67411531 18.84765625 22.078125 C18.07099609 21.29953125 17.29433594 20.5209375 16.49414062 19.71875 C15.69169922 18.9040625 14.88925781 18.089375 14.0625 17.25 C13.26392578 16.45078125 12.46535156 15.6515625 11.64257812 14.828125 C0 3.09873395 0 3.09873395 0 0 Z " fill="#C7C6C7" transform="translate(72,396)"/>
<path d="M0 0 C0.66 0.33 1.32 0.66 2 1 C-5.00042623 7.60775242 -12.07610011 13.51304418 -20 19 C-20.66 18.67 -21.32 18.34 -22 18 C-19.8043651 14.70654765 -18.37327167 13.94900141 -15 12 C-13.73989234 11.16081625 -12.49017169 10.30587484 -11.25 9.4375 C-10.65703125 9.02371094 -10.0640625 8.60992187 -9.453125 8.18359375 C-7.85073617 7.04402417 -7.85073617 7.04402417 -7 5 C-5.66666667 4.33333333 -4.33333333 3.66666667 -3 3 C-1.29078411 1.4587688 -1.29078411 1.4587688 0 0 Z " fill="#C8C7C7" transform="translate(405,419)"/>
<path d="M0 0 C-3.0164505 1.15760628 -6.03883323 2.29889004 -9.0625 3.4375 C-9.91005859 3.76298828 -10.75761719 4.08847656 -11.63085938 4.42382812 C-16.45689308 6.2312616 -20.86576464 7.50538574 -26 8 C-23.23776722 5.23776722 -20.79293383 5.42143709 -17 5 C-17 4.34 -17 3.68 -17 3 C-15.84371094 2.69255859 -15.84371094 2.69255859 -14.6640625 2.37890625 C-13.66117187 2.10949219 -12.65828125 1.84007812 -11.625 1.5625 C-10.62726563 1.29566406 -9.62953125 1.02882813 -8.6015625 0.75390625 C-2.94806517 -0.88441955 -2.94806517 -0.88441955 0 0 Z " fill="#C3C2C3" transform="translate(338,464)"/>
<path d="M0 0 C3.3 0 6.6 0 10 0 C10.33 0.99 10.66 1.98 11 3 C10.01 3 9.02 3 8 3 C7.67 3.99 7.34 4.98 7 6 C4.0625 4.6875 4.0625 4.6875 1 3 C0.67 2.01 0.34 1.02 0 0 Z " fill="#D1D1D1" transform="translate(259,143)"/>
<path d="M0 0 C0.66 0.33 1.32 0.66 2 1 C-3.45851918 9.47011597 -3.45851918 9.47011597 -7 10.6875 C-9 11 -9 11 -12 11 C-8.17426612 7.07503959 -4.38002676 3.31820209 0 0 Z " fill="#CFCECE" transform="translate(105,69)"/>
<path d="M0 0 C0.33 0 0.66 0 1 0 C1 3.98330067 0.8916326 6.02353977 -1.84765625 9.0234375 C-3.85191803 10.75551558 -5.88048667 12.41157202 -8 14 C-8.66 13.67 -9.32 13.34 -10 13 C-9.16855469 11.96939453 -9.16855469 11.96939453 -8.3203125 10.91796875 C-7.59585937 10.01691406 -6.87140625 9.11585938 -6.125 8.1875 C-5.40570313 7.29417969 -4.68640625 6.40085937 -3.9453125 5.48046875 C-1.92059294 2.96429047 -1.92059294 2.96429047 0 0 Z " fill="#C9C9C9" transform="translate(404,338)"/>
<path d="M0 0 C0.66 0.33 1.32 0.66 2 1 C0.58611621 2.75224914 -0.83122783 4.50170655 -2.25 6.25 C-3.03890625 7.22453125 -3.8278125 8.1990625 -4.640625 9.203125 C-6.66465805 11.60247544 -8.74122349 13.82411437 -11 16 C-11 11.61381654 -8.26543217 9.44824189 -5.5 6.3125 C-4.97535156 5.70599609 -4.45070313 5.09949219 -3.91015625 4.47460938 C-2.61333098 2.97736565 -1.30750638 1.48792528 0 0 Z " fill="#C8C8C8" transform="translate(78,95)"/>
<path d="M0 0 C8.02770189 0.55363461 15.33854067 2.65687944 23 5 C21.1875 6.07421875 21.1875 6.07421875 19 7 C17.38501199 6.36073391 15.77447537 5.70195838 14.21484375 4.9375 C9.6811522 3.01847712 4.78458141 2.10776023 0 1 C0 0.67 0 0.34 0 0 Z " fill="#C4C3C4" transform="translate(296,24)"/>
<path d="M0 0 C0.66 0.33 1.32 0.66 2 1 C0.92646259 2.4655595 -0.1592554 3.92220152 -1.25 5.375 C-1.85328125 6.18710938 -2.4565625 6.99921875 -3.078125 7.8359375 C-4.97181904 9.96826778 -6.38328518 10.94636704 -9 12 C-6.45335415 7.18966896 -4.00972202 3.67557852 0 0 Z " fill="#A9A9A9" transform="translate(160,234)"/>
<path d="M0 0 C0.99 1.32 1.98 2.64 3 4 C1.35 6.97 -0.3 9.94 -2 13 C-2.33 11.68 -2.66 10.36 -3 9 C-2.34 8.01 -1.68 7.02 -1 6 C-0.9603287 4.33380554 -0.95615553 2.66608987 -1 1 C-0.67 0.67 -0.34 0.34 0 0 Z " fill="#D1CFD0" transform="translate(452,353)"/>
<path d="M0 0 C0.66 0.33 1.32 0.66 2 1 C-3.92941176 8.24705882 -3.92941176 8.24705882 -7 11 C-7.66 11 -8.32 11 -9 11 C-7.59155282 7.78475695 -5.89655214 5.67816132 -3.375 3.25 C-2.74335937 2.63640625 -2.11171875 2.0228125 -1.4609375 1.390625 C-0.73777344 0.70226562 -0.73777344 0.70226562 0 0 Z " fill="#C5C5C5" transform="translate(90,82)"/>
<path d="M0 0 C3.48749314 2.78999451 6.50157221 5.25235831 9 9 C8.67 9.66 8.34 10.32 8 11 C6.68 10.67 5.36 10.34 4 10 C3.896875 9.236875 3.79375 8.47375 3.6875 7.6875 C2.94399108 4.78105605 2.15141968 3.96433971 0 2 C0 1.34 0 0.68 0 0 Z " fill="#C5C5C5" transform="translate(424,99)"/>
<path d="M0 0 C0.66 0 1.32 0 2 0 C0.59023295 3.03852705 -1.08870228 5.5939595 -3.125 8.25 C-3.66382813 8.95640625 -4.20265625 9.6628125 -4.7578125 10.390625 C-5.16773438 10.92171875 -5.57765625 11.4528125 -6 12 C-6.33 11.34 -6.66 10.68 -7 10 C-5.52830189 6.26415094 -5.52830189 6.26415094 -3 5 C-2.505 4.154375 -2.01 3.30875 -1.5 2.4375 C-1.005 1.633125 -0.51 0.82875 0 0 Z " fill="#C7C7C7" transform="translate(434,386)"/>
<path d="M0 0 C0 3 0 3 -1.53125 4.82421875 C-2.1809375 5.43910156 -2.830625 6.05398438 -3.5 6.6875 C-4.1496875 7.31011719 -4.799375 7.93273437 -5.46875 8.57421875 C-5.9740625 9.04472656 -6.479375 9.51523437 -7 10 C-7 7 -7 7 -4.625 4.4375 C-3.75875 3.633125 -2.8925 2.82875 -2 2 C-1.34 1.34 -0.68 0.68 0 0 Z " fill="#C4C4C4" transform="translate(423,401)"/>
<path d="M0 0 C4.43458973 1.3937282 6.87378374 3.60582235 10 7 C6.66666667 5.66666667 3.33333333 4.33333333 0 3 C0 2.01 0 1.02 0 0 Z " fill="#C6C6C6" transform="translate(376,57)"/>
<path d="M0 0 C0.66 0.33 1.32 0.66 2 1 C0.02 3.97 -1.96 6.94 -4 10 C-4.66 9.67 -5.32 9.34 -6 9 C-5.34 7.68 -4.68 6.36 -4 5 C-3.34 5 -2.68 5 -2 5 C-1.34 3.35 -0.68 1.7 0 0 Z " fill="#C9C7C7" transform="translate(444,372)"/>
<path d="M0 0 C0.33 0.66 0.66 1.32 1 2 C-1.38957269 5.24299151 -3.2047869 7.50902342 -7 9 C-5.44499019 5.18315774 -2.96404505 2.80804268 0 0 Z " fill="#A3A3A3" transform="translate(294,282)"/>
<path d="M0 0 C2.76276177 0.52268466 5.3260876 1.10869587 8 2 C8.33 2.99 8.66 3.98 9 5 C5.22454612 3.90931332 2.52956528 3.0916909 0 0 Z " fill="#C9C7C8" transform="translate(134,449)"/>
<path d="M0 0 C0.66 0.66 1.32 1.32 2 2 C-0.31 4.31 -2.62 6.62 -5 9 C-5 4.61031544 -2.87194899 3.23094261 0 0 Z " fill="#C9C9C9" transform="translate(413,410)"/>
<path d="M0 0 C0.66 0.33 1.32 0.66 2 1 C0.90716423 2.03295436 -0.19970579 3.05107835 -1.3125 4.0625 C-1.92738281 4.63097656 -2.54226563 5.19945312 -3.17578125 5.78515625 C-3.77777344 6.18605469 -4.37976563 6.58695312 -5 7 C-5.99 6.67 -6.98 6.34 -8 6 C-5.36 4.02 -2.72 2.04 0 0 Z " fill="#ABABAB" transform="translate(362,380)"/>
<path d="M0 0 C0.33 0 0.66 0 1 0 C1 1.65 1 3.3 1 5 C0.01 5 -0.98 5 -2 5 C-2.33 5.99 -2.66 6.98 -3 8 C-3.66 7.67 -4.32 7.34 -5 7 C-4.19152271 5.83054208 -3.37810888 4.66449539 -2.5625 3.5 C-2.11003906 2.8503125 -1.65757812 2.200625 -1.19140625 1.53125 C-0.79824219 1.0259375 -0.40507812 0.520625 0 0 Z " fill="#AFAFAF" transform="translate(404,338)"/>
<path d="" fill="#FFFFFF" transform="translate(0,0)"/>
<path d="" fill="#FFFFFF" transform="translate(0,0)"/>
<path d="" fill="#FFFFFF" transform="translate(0,0)"/>
<path d="" fill="#FFFFFF" transform="translate(0,0)"/>
<path d="" fill="#FFFFFF" transform="translate(0,0)"/>
<path d="" fill="#FFFFFF" transform="translate(0,0)"/>
<path d="" fill="#FFFFFF" transform="translate(0,0)"/>
<path d="" fill="#FFFFFF" transform="translate(0,0)"/>
<path d="" fill="#FFFFFF" transform="translate(0,0)"/>
<path d="" fill="#FFFFFF" transform="translate(0,0)"/>
<path d="" fill="#FFFFFF" transform="translate(0,0)"/>
<path d="" fill="#FFFFFF" transform="translate(0,0)"/>
<path d="" fill="#FFFFFF" transform="translate(0,0)"/>
<path d="" fill="#FFFFFF" transform="translate(0,0)"/>
<path d="" fill="#FFFFFF" transform="translate(0,0)"/>
<path d="" fill="#FFFFFF" transform="translate(0,0)"/>
<path d="" fill="#FFFFFF" transform="translate(0,0)"/>
<path d="" fill="#FFFFFF" transform="translate(0,0)"/>
<path d="" fill="#FFFFFF" transform="translate(0,0)"/>
<path d="" fill="#FFFFFF" transform="translate(0,0)"/>
<path d="" fill="#FFFFFF" transform="translate(0,0)"/>
<path d="" fill="#FFFFFF" transform="translate(0,0)"/>
<path d="" fill="#FFFFFF" transform="translate(0,0)"/>
<path d="" fill="#FFFFFF" transform="translate(0,0)"/>
<path d="" fill="#FFFFFF" transform="translate(0,0)"/>
<path d="" fill="#FFFFFF" transform="translate(0,0)"/>
<path d="" fill="#FFFFFF" transform="translate(0,0)"/>
<path d="" fill="#FFFFFF" transform="translate(0,0)"/>
</svg>
